<?xml version="1.0" encoding="UTF-8" standalone="no"?>
<!-- Created with Inkscape (http://www.inkscape.org/) -->

<svg
   width="344.36752mm"
   height="52.915585mm"
   viewBox="0 0 344.36752 52.915585"
   version="1.1"
   id="svg5"
   xml:space="preserve"
   inkscape:version="1.2.1 (ef4d3fba62, 2022-07-19, custom)"
   sodipodi:docname="theflexspot"
   inkscape:export-filename="../7410b602/theflexspot.svg"
   inkscape:export-xdpi="96"
   inkscape:export-ydpi="96"
   xmlns:inkscape="http://www.inkscape.org/namespaces/inkscape"
   xmlns:sodipodi="http://sodipodi.sourceforge.net/DTD/sodipodi-0.dtd"
   xmlns="http://www.w3.org/2000/svg"
   xmlns:svg="http://www.w3.org/2000/svg"><sodipodi:namedview
     id="namedview7"
     pagecolor="#505050"
     bordercolor="#ffffff"
     borderopacity="1"
     inkscape:showpageshadow="0"
     inkscape:pageopacity="0"
     inkscape:pagecheckerboard="1"
     inkscape:deskcolor="#505050"
     inkscape:document-units="mm"
     showgrid="false"
     inkscape:zoom="0.32058868"
     inkscape:cx="938.89778"
     inkscape:cy="290.09134"
     inkscape:window-width="1452"
     inkscape:window-height="773"
     inkscape:window-x="193"
     inkscape:window-y="111"
     inkscape:window-maximized="0"
     inkscape:current-layer="layer1" /><defs
     id="defs2"><inkscape:path-effect
       effect="fillet_chamfer"
       id="path-effect436"
       is_visible="true"
       lpeversion="1"
       nodesatellites_param="F,0,0,1,0,0,0,1 @ F,0,0,1,0,19.271893,0,1 @ F,0,0,1,0,0,0,1 @ F,0,0,1,0,18.704699,0,1"
       unit="px"
       method="auto"
       mode="F"
       radius="0"
       chamfer_steps="1"
       flexible="false"
       use_knot_distance="true"
       apply_no_radius="true"
       apply_with_radius="true"
       only_selected="false"
       hide_knots="false" /></defs><g
     inkscape:label="Layer 1"
     inkscape:groupmode="layer"
     id="layer1"
     transform="translate(-77.301163,-79.802094)"><path
       style="fill:#22201f;fill-opacity:1;stroke:none;stroke-width:0.264583"
       id="rect434"
       width="52.915588"
       height="52.915588"
       x="-130.21675"
       y="79.802094"
       inkscape:path-effect="#path-effect436"
       d="m -130.21675,79.802094 h 33.643694 a 19.271893,19.271893 45 0 1 19.271893,19.271893 v 33.643693 h -34.210887 a 18.704699,18.704699 45 0 1 -18.7047,-18.7047 z"
       sodipodi:type="rect"
       transform="scale(-1,1)" /><path
       d="m 98.800363,122.06831 c 1.601147,0 3.169737,-0.22743 4.348147,-0.6805 0.37718,-0.14484 0.56536,-0.56886 0.42055,-0.94558 -0.14532,-0.37766 -0.57029,-0.56443 -0.94558,-0.42055 -2.03645,0.78312 -5.564977,0.77864 -7.86854,-0.01 -0.380991,-0.13071 -0.798685,0.0732 -0.928906,0.45563 -0.131179,0.38306 0.07274,0.79869 0.455631,0.92984 1.306558,0.44673 2.928809,0.67083 4.518495,0.67083 z M 112.78802,94.471081 c -0.78596,-1.7471 -1.18951,-3.41159 -1.54602,-4.87952 -0.52296,-2.15634 -0.97481,-4.01859 -2.46525,-5.01205 -0.98257,-0.654322 -2.36914,-0.50885 -4.12495,-0.32493 -0.88508,0.0927 -1.88858,0.19803 -2.95645,0.21027 -0.92509,0.0103 -1.45044,0.42737 -1.727553,0.77563 -0.573329,0.71863 -0.688468,1.84175 -0.359073,3.42477 -0.613822,0.3362 -1.105961,0.84645 -1.381202,1.45629 -0.239964,0.53076 -0.433717,1.40503 0.0078,2.55498 0.366378,0.95716 1.32656,2.3793 2.644698,3.397 0.39037,0.30095 0.75673,0.63525 1.11137,0.9581 1.03673,0.94493 2.10663,1.91973 3.89264,2.26815 1.02022,2.838929 0.67432,5.127929 0.33954,7.345299 -0.25219,1.66608 -0.50055,3.37904 -0.15801,5.24746 -1.46012,-0.72498 -3.14482,-1.50061 -5.86462,-1.66941 -5.382424,-0.33367 -10.042402,3.05886 -10.23755,3.2034 -0.32493,0.23996 -0.393696,0.69814 -0.153252,1.02306 0.239487,0.32493 0.697655,0.39417 1.023064,0.15421 0.04383,-0.0322 4.42702,-3.2204 9.277668,-2.91991 2.58133,0.16009 4.09405,0.91475 5.55766,1.64563 1.46012,0.72896 2.8399,1.41723 4.99784,1.41723 0.40401,0 0.7318,-0.32732 0.7318,-0.73181 0,-0.4045 -0.32779,-0.73181 -0.7318,-0.73181 -1.14837,0 -2.0398,-0.23568 -2.88434,-0.5806 -0.67082,-2.04564 -0.40497,-3.8933 -0.11117,-5.83941 0.36098,-2.39154 0.77039,-5.10231 -0.57125,-8.488129 -0.098,-0.24744 -0.32303,-0.42148 -0.587,-0.45612 -1.59924,-0.20535 -2.49684,-1.02307 -3.53612,-1.96958 -0.37623,-0.34303 -0.76454,-0.69717 -1.20204,-1.03482 -1.08738,-0.84011 -1.88858,-2.02071 -2.173009,-2.76236 -0.208837,-0.54536 -0.222497,-1.02591 -0.0405,-1.42853 0.08099,-0.17897 0.192164,-0.32302 0.310795,-0.44339 0.157064,0.81613 0.477544,1.62847 1.493774,1.87875 0.59333,0.14594 1.40995,0.0902 2.13045,0.041 0.14881,-0.0103 0.29365,-0.0205 0.43038,-0.0278 0.10546,-0.006 0.20487,-0.016 0.30445,-0.0264 -0.26045,0.88886 -0.32731,2.06755 0.21423,3.51307 0.11022,0.29364 0.38878,0.47519 0.68497,0.47519 0.0854,0 0.17216,-0.0156 0.25664,-0.0468 0.37814,-0.14198 0.57028,-0.56345 0.42832,-0.94208 -0.91525,-2.44334 0.45656,-3.7786 0.526,-3.84438 0.003,-0.003 0.004,-0.007 0.008,-0.0103 0.0264,-0.0273 0.0556,-0.0523 0.08,-0.08 0.34049,-0.39179 0.50437,-0.88983 0.46197,-1.40405 -0.17216,-2.05788 -2.31007,-2.05788 -3.33805,-2.05788 -0.40402,0 -0.73181,0.32731 -0.73181,0.7318 0,0.4045 0.32779,0.73181 0.73181,0.73181 1.69722,0 1.84175,0.27077 1.87923,0.71575 0.0103,0.11911 -0.0264,0.22583 -0.1064,0.31905 -0.0141,0.0142 -0.0341,0.0341 -0.0565,0.0575 -0.15325,0.13563 -0.53519,0.35669 -1.42503,0.40592 -0.14198,0.008 -0.29316,0.0186 -0.44831,0.0293 -0.583,0.04 -1.30891,0.0893 -1.68023,-0.002 -0.27172,-0.0673 -0.36002,-0.30094 -0.49868,-1.31831 -0.0429,-0.31174 -0.0869,-0.63476 -0.16008,-0.97223 -0.34256,-1.57876 -0.0746,-2.1316 0.0561,-2.29597 0.0746,-0.0942 0.21852,-0.21995 0.59902,-0.2244 1.13629,-0.0127 2.17591,-0.12197 3.09253,-0.21805 1.40455,-0.14737 2.61788,-0.27474 3.16084,0.0869 1.01433,0.67623 1.38498,2.20465 1.85493,4.13958 0.37129,1.53001 0.79185,3.2639 1.63338,5.13484 6.54031,14.540579 7.0538,20.014489 7.04486,25.658749 -0.003,2.36121 -1.97101,2.92723 -4.97222,3.52197 -1.18837,0.23425 -2.31007,0.45658 -3.18673,0.9016 -5.35153,2.69743 -13.611589,2.69202 -19.64045,-0.0142 -0.367809,-0.16581 -0.802466,-6.4e-4 -0.967,0.36781 -0.165799,0.36876 -9.51e-4,0.80152 0.36781,0.96699 3.24438,1.45678 7.009481,2.1851 10.69087,2.1851 3.69318,0 7.30139,-0.73323 10.20951,-2.20034 0.69814,-0.35368 1.7236,-0.55662 2.81017,-0.77136 2.73838,-0.54155 6.14676,-1.21618 6.15205,-4.95433 0.009,-6.81637 -1.09705,-12.74928 -7.17455,-26.260859 z"
       id="path454"
       style="fill:#60712f;fill-opacity:1;stroke-width:0.0406559" /><text
       xml:space="preserve"
       style="font-style:normal;font-weight:normal;font-size:35.2778px;line-height:1.25;font-family:sans-serif;letter-spacing:2.64583px;fill:#22201c;fill-opacity:1;stroke:none;stroke-width:0.264583"
       x="139.79947"
       y="118.30109"
       id="text4266"><tspan
         sodipodi:role="line"
         id="tspan4264"
         style="font-style:normal;font-variant:normal;font-weight:bold;font-stretch:normal;font-size:35.2778px;font-family:Athiti;-inkscape-font-specification:'Athiti Bold';fill:#22201c;fill-opacity:1;stroke-width:0.264583"
         x="139.79947"
         y="118.30109">THE FLEX SPOT</tspan></text><rect
       style="fill:#60712f;fill-opacity:1;stroke:none;stroke-width:1.60487;stroke-linecap:round;stroke-dasharray:none;stroke-opacity:1"
       id="rect6203"
       width="1.108"
       height="7.073"
       x="98.146042"
       y="117.58126"
       ry="1.2296565" /><rect
       style="fill:#60712f;fill-opacity:1;stroke:none;stroke-width:1.6636;stroke-linecap:round;stroke-dasharray:none;stroke-opacity:1"
       id="rect6203-3"
       width="1.1974677"
       height="7.0322833"
       x="111.25368"
       y="93.93206"
       ry="1.2225777"
       transform="matrix(0.97580468,0.21864408,-0.13744264,0.99050973,0,0)" /><rect
       style="fill:#60712f;fill-opacity:1;stroke:none;stroke-width:1.6636;stroke-linecap:round;stroke-dasharray:none;stroke-opacity:1"
       id="rect7010"
       width="1.1974677"
       height="7.0322833"
       x="83.491837"
       y="137.25797"
       ry="1.2225777"
       transform="matrix(0.97580468,-0.21864408,0.13744264,0.99050973,0,0)" /></g></svg>
