<?xml version="1.0" encoding="UTF-8" standalone="no"?>
<!-- Created with Inkscape (http://www.inkscape.org/) -->

<svg
   width="52.915588mm"
   height="52.915588mm"
   viewBox="0 0 52.915588 52.915588"
   version="1.1"
   id="svg7300"
   xmlns:inkscape="http://www.inkscape.org/namespaces/inkscape"
   xmlns:sodipodi="http://sodipodi.sourceforge.net/DTD/sodipodi-0.dtd"
   xmlns="http://www.w3.org/2000/svg"
   xmlns:svg="http://www.w3.org/2000/svg">
  <sodipodi:namedview
     id="namedview7302"
     pagecolor="#505050"
     bordercolor="#ffffff"
     borderopacity="1"
     inkscape:showpageshadow="0"
     inkscape:pageopacity="0"
     inkscape:pagecheckerboard="1"
     inkscape:deskcolor="#505050"
     inkscape:document-units="mm"
     showgrid="false" />
  <defs
     id="defs7297">
    <inkscape:path-effect
       effect="fillet_chamfer"
       id="path-effect436"
       is_visible="true"
       lpeversion="1"
       nodesatellites_param="F,0,0,1,0,0,0,1 @ F,0,0,1,0,19.271893,0,1 @ F,0,0,1,0,0,0,1 @ F,0,0,1,0,18.704699,0,1"
       unit="px"
       method="auto"
       mode="F"
       radius="0"
       chamfer_steps="1"
       flexible="false"
       use_knot_distance="true"
       apply_no_radius="true"
       apply_with_radius="true"
       only_selected="false"
       hide_knots="false" />
  </defs>
  <g
     inkscape:label="Layer 1"
     inkscape:groupmode="layer"
     id="layer1"
     transform="translate(125.34132,10.035441)">
    <path
       style="fill:#22201f;fill-opacity:1;stroke:none;stroke-width:0.264583"
       id="rect434"
       width="52.915588"
       height="52.915588"
       x="72.425735"
       y="-10.035441"
       inkscape:path-effect="#path-effect436"
       d="m 72.425735,-10.035441 h 33.643695 a 19.271893,19.271893 45 0 1 19.27189,19.2718926 l 0,33.6436954 H 91.130434 A 18.704699,18.704699 45 0 1 72.425735,24.175448 Z"
       sodipodi:type="rect"
       transform="scale(-1,1)" />
    <path
       d="m -103.84213,32.230775 c 1.60115,0 3.16974,-0.22743 4.34815,-0.6805 0.37718,-0.14484 0.56536,-0.56886 0.42055,-0.94558 -0.14532,-0.37766 -0.57029,-0.56443 -0.94558,-0.42055 -2.03645,0.78312 -5.56498,0.77864 -7.86854,-0.01 -0.38099,-0.13071 -0.79869,0.0732 -0.92891,0.45563 -0.13118,0.38306 0.0727,0.79869 0.45563,0.92984 1.30656,0.44673 2.92881,0.67083 4.5185,0.67083 z M -89.85447,4.633546 c -0.78596,-1.7471 -1.18951,-3.41159 -1.54602,-4.87952 -0.52296,-2.15634 -0.97481,-4.01859 -2.46525,-5.01205 -0.98257,-0.654322 -2.36914,-0.50885 -4.12495,-0.32493 -0.88508,0.0927 -1.88858,0.19803 -2.95645,0.21027 -0.92509,0.0103 -1.45044,0.42737 -1.72755,0.77563 -0.57333,0.71863 -0.68847,1.84175 -0.35908,3.42477 -0.61382,0.3362 -1.10596,0.84645 -1.3812,1.45629 -0.23996,0.53076 -0.43372,1.40503 0.008,2.55498 0.36638,0.95716 1.32656,2.3793 2.6447,3.397 0.39037,0.30095 0.75673,0.63525 1.11137,0.9581 1.03673,0.94493 2.10663,1.91973 3.89264,2.26815 1.02022,2.838929 0.67432,5.127929 0.33954,7.345299 -0.25219,1.66608 -0.50055,3.37904 -0.15801,5.24746 -1.46012,-0.72498 -3.14482,-1.50061 -5.86462,-1.66941 -5.38242,-0.33367 -10.0424,3.05886 -10.23755,3.2034 -0.32493,0.23996 -0.3937,0.69814 -0.15325,1.02306 0.23948,0.32493 0.69765,0.39417 1.02306,0.15421 0.0438,-0.0322 4.42702,-3.2204 9.27767,-2.91991 2.58133,0.16009 4.09405,0.91475 5.55766,1.64563 1.46012,0.72896 2.8399,1.41723 4.99784,1.41723 0.40401,0 0.7318,-0.32732 0.7318,-0.73181 0,-0.4045 -0.32779,-0.73181 -0.7318,-0.73181 -1.14837,0 -2.0398,-0.23568 -2.88434,-0.5806 -0.67082,-2.04564 -0.40497,-3.8933 -0.11117,-5.83941 0.36098,-2.39154 0.77039,-5.10231 -0.57125,-8.488129 -0.098,-0.24744 -0.32303,-0.42148 -0.587,-0.45612 -1.59924,-0.20535 -2.49684,-1.02307 -3.53612,-1.96958 -0.37623,-0.34303 -0.76454,-0.69717 -1.20204,-1.03482 -1.08738,-0.84011 -1.88858,-2.02071 -2.17301,-2.76236 -0.20884,-0.54536 -0.2225,-1.02591 -0.0405,-1.42853 0.081,-0.17897 0.19217,-0.32302 0.3108,-0.44339 0.15706,0.81613 0.47754,1.62847 1.49377,1.87875 0.59333,0.14594 1.40995,0.0902 2.13045,0.041 0.14881,-0.0103 0.29365,-0.0205 0.43038,-0.0278 0.10546,-0.006 0.20487,-0.016 0.30445,-0.0264 -0.26045,0.88886 -0.32731,2.06755 0.21423,3.51307 0.11022,0.29364 0.38878,0.47519 0.68497,0.47519 0.0854,0 0.17216,-0.0156 0.25664,-0.0468 0.37814,-0.14198 0.57028,-0.56345 0.42832,-0.94208 -0.91525,-2.44334 0.45656,-3.7786 0.526,-3.84438 0.003,-0.003 0.004,-0.007 0.008,-0.0103 0.0264,-0.0273 0.0556,-0.0523 0.08,-0.08 0.34049,-0.39179 0.50437,-0.88983 0.46197,-1.40405 -0.17216,-2.05788 -2.31007,-2.05788 -3.33805,-2.05788 -0.40402,0 -0.73181,0.32731 -0.73181,0.7318 0,0.4045 0.32779,0.73181 0.73181,0.73181 1.69722,0 1.84175,0.27077 1.87923,0.71575 0.0103,0.11911 -0.0264,0.22583 -0.1064,0.31905 -0.0141,0.0142 -0.0341,0.0341 -0.0565,0.0575 -0.15325,0.13563 -0.53519,0.35669 -1.42503,0.40592 -0.14198,0.008 -0.29316,0.0186 -0.44831,0.0293 -0.583,0.04 -1.30891,0.0893 -1.68023,-0.002 -0.27172,-0.0673 -0.36002,-0.30094 -0.49868,-1.31831 -0.0429,-0.31174 -0.0869,-0.63476 -0.16008,-0.97223 -0.34256,-1.57876 -0.0746,-2.1316 0.0561,-2.29597 0.0746,-0.0942 0.21852,-0.21995 0.59902,-0.2244 1.13629,-0.0127 2.17591,-0.12197 3.09253,-0.21805 1.40455,-0.14737 2.61788,-0.27474 3.16084,0.0869 1.01433,0.67623 1.38498,2.20465 1.85493,4.13958 0.37129,1.53001 0.79185,3.2639 1.63338,5.13484 6.54031,14.540579 7.0538,20.014489 7.04486,25.658749 -0.003,2.36121 -1.97101,2.92723 -4.97222,3.52197 -1.18837,0.23425 -2.31007,0.45658 -3.18673,0.9016 -5.35153,2.69743 -13.61159,2.69202 -19.64045,-0.0142 -0.36781,-0.16581 -0.80247,-6.4e-4 -0.967,0.36781 -0.1658,0.36876 -9.5e-4,0.80152 0.36781,0.96699 3.24438,1.45678 7.00948,2.1851 10.69087,2.1851 3.69318,0 7.30139,-0.73323 10.20951,-2.20034 0.69814,-0.35368 1.7236,-0.55662 2.81017,-0.77136 2.73838,-0.54155 6.14676,-1.21618 6.15205,-4.95433 0.009,-6.81637 -1.09705,-12.74928 -7.17455,-26.260859 z"
       id="path454"
       style="fill:#60712f;fill-opacity:1;stroke-width:0.0406559" />
    <rect
       style="fill:#60712f;fill-opacity:1;stroke:none;stroke-width:1.60487;stroke-linecap:round;stroke-dasharray:none;stroke-opacity:1"
       id="rect6203"
       width="1.108"
       height="7.073"
       x="-104.49644"
       y="27.743725"
       ry="1.2296565" />
    <rect
       style="fill:#60712f;fill-opacity:1;stroke:none;stroke-width:1.6636;stroke-linecap:round;stroke-dasharray:none;stroke-opacity:1"
       id="rect6203-3"
       width="1.1974677"
       height="7.0322833"
       x="-102.54115"
       y="50.42662"
       ry="1.2225777"
       transform="matrix(0.97580468,0.21864408,-0.13744264,0.99050973,0,0)" />
    <rect
       style="fill:#60712f;fill-opacity:1;stroke:none;stroke-width:1.6636;stroke-linecap:round;stroke-dasharray:none;stroke-opacity:1"
       id="rect7010"
       width="1.1974677"
       height="7.0322833"
       x="-105.52361"
       y="4.8366089"
       ry="1.2225777"
       transform="matrix(0.97580468,-0.21864408,0.13744264,0.99050973,0,0)" />
  </g>
</svg>
